{"title":"Star Wars IV (1977) MULTI HQ 1080p Blu-Ray x264 DTS-HD MSubs -DD","uid":15886358,"size":15031492918,"categoryP":"video","categoryS":"hd___movies","magnet":"?xt=urn:btih:eca71b733044a0e014bf22d40ac4607c1a4d944c&amp;dn=Star+Wars+IV+%281977%29+MULTI+HQ+1080p+Blu-Ray+x264+DTS-HD+MSubs+-DD&amp;tr=udp%3A%2F%2Ftracker.leechers-paradise.org%3A6969&amp;tr=udp%3A%2F%2Fzer0day.ch%3A1337&amp;tr=udp%3A%2F%2Fopen.demonii.com%3A1337&amp;tr=udp%3A%2F%2Ftracker.coppersurfer.tk%3A6969&amp;tr=udp%3A%2F%2Fexodus.desync.com%3A6969","seeders":35,"leechers":32,"uploader":"SaM","files":3,"time":1474661830,"description":"HQ 1080p Blu-ray Rip x264\r\n\r\nEnglish DTS-HD MA 6.1 Audio\r\nFrench DTS 5.1 Audio\r\nHindi DD AC3 2.0 Audio\r\n\r\nEnglish|French|Spanish|Dutch|Portuguese|Finnish|Swedish | Norwegian| Danish| | Subtitles\r\n+\r\nSDH subs\r\n \nhttps://extraimago.com/image/w9j9 \nhttps://extraimago.com/image/w9j3 \nhttps://extraimago.com/image/w9jb \nhttps://extraimago.com/image/w9jh \nhttps://extraimago.com/image/w9jd \nhttps://extraimago.com/image/w9jI \nhttps://extraimago.com/image/w9jl \nhttps://extraimago.com/image/w9ji \nhttps://extraimago.com/image/w9jm \nhttps://extraimago.com/image/w9jR \nhttps://extraimago.com/image/w9jQ \nhttps://extraimago.com/image/w9jL \nhttps://extraimago.com/image/w9jy \nhttps://extraimago.com/image/w9jq \nhttps://extraimago.com/image/w9jS \nhttps://extraimago.com/image/w9jO\r\n\r\nSpecs:\r\nSource: French Digitally Remastered 10 Disc Set @ DDR\r\n\r\nFormat : Matroska\r\nFormat version : Version 4 / Version 2\r\nFile size : 13.8 GiB\r\nDuration : 2 h 4 min\r\nOverall bit rate : 15.9 Mb/s\r\n\r\nVideo\r\nID : 1\r\nFormat : AVC\r\nFormat/Info : Advanced Video Codec\r\nFormat profile :   \r\nFormat settings, CABAC : Yes\r\nFormat settings, ReFrames : 5 frames\r\nCodec ID : V_MPEG4/ISO/AVC\r\nDuration : 2 h 4 min\r\nBit rate : 10 000 kb/s\r\nWidth : 1 920 pixels\r\nHeight : 816 pixels\r\nDisplay aspect ratio : 2.35:1\r\nFrame rate mode : Constant\r\nFrame rate : 23.976 (24000/1001) FPS\r\nColor space : YUV\r\nChroma subsampling : 4:2:0\r\nBit depth : 8 bits\r\nScan type : Progressive\r\nBits/(Pixel*Frame) : 0.266\r\nStream size : 8.71 GiB (63%)\r\n\r\n\r\nAudio #1\r\nID : 2\r\nFormat : DTS\r\nFormat/Info : Digital Theater Systems\r\nFormat profile : MA / ES Discrete / Core\r\nMode : 16\r\nFormat settings, Endianness : Big\r\nCodec ID : A_DTS\r\nDuration : 2 h 4 min\r\nBit rate mode : Variable / Constant / Constant\r\nBit rate : 4 069 kb/s / 1 509 kb/s / 1 509 kb/s\r\nChannel(s) : 7 channels / 7 channels / 6 channels\r\nChannel positions : Front: L C R, Side: L R, Back: C, LFE / Front: L C R, Side: L R, Back: C, LFE / Front: L C R, Side: L R, LFE\r\nSampling rate : 48.0 kHz\r\nFrame rate : 93.750 FPS (512 spf)\r\nBit depth : 24 bits\r\nCompression mode : Lossless / Lossy / Lossy\r\nStream size : 3.55 GiB (26%)\r\nLanguage : English\r\nDefault : Yes\r\nForced : No\r\n\r\nAudio #2\r\nID : 3\r\nFormat : DTS\r\nFormat/Info : Digital Theater Systems\r\nMode : 16\r\nFormat settings, Endianness : Big\r\nCodec ID : A_DTS\r\nDuration : 2 h 4 min\r\nBit rate mode : Constant\r\nBit rate : 768 kb/s\r\nChannel(s) : 6 channels\r\nChannel positions : Front: L C R, Side: L R, LFE\r\nSampling rate : 48.0 kHz\r\nFrame rate : 93.750 FPS (512 spf)\r\nBit depth : 24 bits\r\nCompression mode : Lossy\r\nStream size : 685 MiB (5%)\r\nLanguage : French\r\nDefault : No\r\nForced : No\r\n\r\nAudio #3\r\nID : 4\r\nFormat : AC-3\r\nFormat/Info : Audio Coding 3\r\nMode extension : CM (complete main)\r\nFormat settings, Endianness : Big\r\nCodec ID : A_AC3\r\nDuration : 2 h 4 min\r\nBit rate mode : Constant\r\nBit rate : 192 kb/s\r\nChannel(s) : 2 channels\r\nChannel positions : Front: L R\r\nSampling rate : 48.0 kHz\r\nFrame rate : 31.250 FPS (1536 spf)\r\nCompression mode : Lossy\r\nStream size : 171 MiB (1%)\r\nLanguage : Hindi\r\nDefault : No\r\nForced : No","torrent":{"xt":"urn:btih:eca71b733044a0e014bf22d40ac4607c1a4d944c","amp;dn":"Star+Wars+IV+%281977%29+MULTI+HQ+1080p+Blu-Ray+x264+DTS-HD+MSubs+-DD","amp;tr":["udp%3A%2F%2Ftracker.leechers-paradise.org%3A6969","udp%3A%2F%2Fzer0day.ch%3A1337","udp%3A%2F%2Fopen.demonii.com%3A1337","udp%3A%2F%2Ftracker.coppersurfer.tk%3A6969","udp%3A%2F%2Fexodus.desync.com%3A6969"],"infoHash":"eca71b733044a0e014bf22d40ac4607c1a4d944c","infoHashBuffer":{"type":"Buffer","data":[236,167,27,115,48,68,160,224,20,191,34,212,10,196,96,124,26,77,148,76]},"announce":[],"urlList":[]}}